<svg width="79" height="61" viewBox="0 0 79 61" fill="none" xmlns="http://www.w3.org/2000/svg">
<path d="M70.2633 25.9311L51.6549 25.9311C50.8301 25.9311 50.0635 25.6123 49.6264 25.0876L31.0977 2.84357C30.6603 2.31879 29.8936 2 29.0692 2L25.485 2C23.9285 2 22.7867 3.09733 23.1642 4.23014L29.6516 23.701C30.0292 24.8339 28.8874 25.9311 27.3309 25.9311L15.533 25.9311C14.8429 25.9311 14.1866 25.7077 13.7325 25.3182L6.1966 18.8559C4.59747 17.4849 1.60813 18.5666 2.0427 20.3589L4.40251 30.0972C4.45394 30.3093 4.45394 30.5271 4.40251 30.7392L2.0427 40.4777C1.60813 42.2698 4.59747 43.3515 6.1966 41.9806L13.7325 35.5182C14.1866 35.1288 14.8429 34.9053 15.533 34.9053L27.3309 34.9053C28.8874 34.9053 30.0292 36.0026 29.6516 37.1354L23.1642 56.6064C22.7867 57.7392 23.9285 58.8364 25.485 58.8364L29.0692 58.8364C29.8936 58.8364 30.6603 58.5176 31.0977 57.9929L49.6264 35.7489C50.0635 35.2242 50.8301 34.9053 51.6549 34.9053L70.2633 34.9053C73.5661 34.9053 76.2436 32.8963 76.2436 30.4182C76.2436 27.9402 73.5661 25.9311 70.2633 25.9311Z" stroke="black" stroke-width="3.69" stroke-linecap="round" stroke-linejoin="round"/>
</svg>
